<svg width="17" height="16" viewBox="0 0 17 16" fill="none" xmlns="http://www.w3.org/2000/svg">
<path d="M11.8333 1.33325H5.16668C3.32573 1.33325 1.83334 2.82564 1.83334 4.66658V11.3333C1.83334 13.1742 3.32573 14.6666 5.16668 14.6666H11.8333C13.6743 14.6666 15.1667 13.1742 15.1667 11.3333V4.66658C15.1667 2.82564 13.6743 1.33325 11.8333 1.33325Z" stroke="#E76943" stroke-linecap="round" stroke-linejoin="round"/>
<path d="M11.1667 7.57996C11.2489 8.13479 11.1542 8.70143 10.8958 9.1993C10.6375 9.69717 10.2288 10.1009 9.72776 10.3531C9.22675 10.6052 8.65897 10.693 8.1052 10.6039C7.55143 10.5148 7.03985 10.2533 6.64323 9.85673C6.24662 9.46012 5.98516 8.94854 5.89605 8.39477C5.80694 7.84099 5.89472 7.27322 6.14689 6.77221C6.39907 6.27119 6.8028 5.86245 7.30066 5.60412C7.79853 5.34579 8.36518 5.25102 8.92001 5.33329C9.48596 5.41721 10.0099 5.68093 10.4145 6.08549C10.819 6.49006 11.0828 7.01401 11.1667 7.57996Z" stroke="#E76943" stroke-linecap="round" stroke-linejoin="round"/>
<path d="M12.1667 4.33325H12.1733" stroke="#E76943" stroke-linecap="round" stroke-linejoin="round"/>
</svg>
