<svg width="100" height="4" viewBox="0 0 100 4" fill="none" xmlns="http://www.w3.org/2000/svg">
<path fill-rule="evenodd" clip-rule="evenodd" d="M0 1C0.590279 1 0.972077 1.15613 1.26616 1.37175C1.57972 1.60164 1.81806 1.91419 2.10596 2.29887L2.12297 2.32159L2.12297 2.3216C2.39251 2.68186 2.71118 3.10779 3.15508 3.43325C3.62783 3.77986 4.21864 3.99854 5.01253 3.99854C5.80643 3.99854 6.39724 3.77986 6.86998 3.43325C7.31388 3.10779 7.63255 2.68186 7.90209 2.32159L7.9191 2.29887C8.207 1.91419 8.44535 1.60164 8.7589 1.37175C9.05299 1.15613 9.43478 1 10.0251 1C10.6153 1 10.9971 1.15613 11.2912 1.37175C11.6048 1.60164 11.8431 1.91419 12.131 2.29887L12.148 2.3216C12.4176 2.68186 12.7362 3.10779 13.1801 3.43325C13.6529 3.77986 14.2437 3.99854 15.0376 3.99854C15.8315 3.99854 16.4223 3.77986 16.895 3.43325C17.3389 3.10779 17.6576 2.68187 17.9271 2.32161L17.9272 2.32159L17.9442 2.29887C18.2321 1.91419 18.4704 1.60164 18.784 1.37175C19.0781 1.15613 19.4599 1 20.0501 1C20.6404 1 21.0222 1.15613 21.3163 1.37175C21.6298 1.60164 21.8682 1.91419 22.1561 2.29887L22.1731 2.32159L22.1731 2.32161C22.4426 2.68187 22.7613 3.10779 23.2052 3.43325C23.678 3.77986 24.2688 3.99854 25.0627 3.99854C25.8566 3.99854 26.4474 3.77986 26.9201 3.43325C27.364 3.10779 27.6827 2.68187 27.9522 2.32161L27.9522 2.32159L27.9692 2.29887C28.2571 1.91419 28.4955 1.60164 28.809 1.37175C29.1031 1.15613 29.4849 1 30.0752 1C30.6655 1 31.0473 1.15613 31.3414 1.37175C31.6549 1.60164 31.8933 1.91419 32.1812 2.29887L32.1982 2.32161C32.4677 2.68187 32.7864 3.10779 33.2303 3.43325C33.703 3.77986 34.2938 3.99854 35.0877 3.99854C35.8816 3.99854 36.4724 3.77986 36.9452 3.43325C37.3891 3.10779 37.7077 2.68187 37.9773 2.32161L37.9943 2.29887C38.2822 1.91419 38.5205 1.60164 38.8341 1.37175C39.1282 1.15613 39.51 1 40.1003 1C40.6905 1 41.0723 1.15613 41.3664 1.37175C41.68 1.60164 41.9183 1.91419 42.2062 2.29887L42.2232 2.32157C42.4928 2.68184 42.8114 3.10778 43.2553 3.43325C43.7281 3.77986 44.3189 3.99854 45.1128 3.99854C45.9067 3.99854 46.4975 3.77986 46.9702 3.43325C47.4141 3.10779 47.7328 2.68186 48.0024 2.32159L48.0194 2.29887C48.3073 1.91419 48.5456 1.60164 48.8592 1.37175C49.1319 1.17179 49.4801 1.02299 50 1.00243C50.5199 1.02299 50.8681 1.17179 51.1408 1.37175C51.4543 1.60164 51.6927 1.91419 51.9806 2.29887L51.9976 2.32159C52.2671 2.68186 52.5858 3.10779 53.0297 3.43325C53.5025 3.77986 54.0933 3.99854 54.8872 3.99854C55.6811 3.99854 56.2719 3.77986 56.7446 3.43325C57.1885 3.10779 57.5072 2.68186 57.7767 2.32159L57.7937 2.29887C58.0816 1.91419 58.32 1.60164 58.6335 1.37175C58.9276 1.15613 59.3094 1 59.8997 1C60.49 1 60.8718 1.15613 61.1659 1.37175C61.4794 1.60164 61.7178 1.91419 62.0057 2.29887L62.0227 2.3216C62.2922 2.68186 62.6109 3.10779 63.0548 3.43325C63.5275 3.77986 64.1183 3.99854 64.9122 3.99854C65.7061 3.99854 66.2969 3.77986 66.7697 3.43325C67.2136 3.10779 67.5323 2.68185 67.8018 2.32159L67.8188 2.29887C68.1067 1.91419 68.345 1.60164 68.6586 1.37175C68.9527 1.15613 69.3345 1 69.9248 1C70.515 1 70.8968 1.15613 71.1909 1.37175C71.5045 1.60164 71.7428 1.91419 72.0307 2.29887L72.0477 2.32159L72.0478 2.32167C72.3173 2.68192 72.636 3.10781 73.0798 3.43325C73.5526 3.77986 74.1434 3.99854 74.9373 3.99854C75.7312 3.99854 76.322 3.77986 76.7947 3.43325C77.2386 3.10779 77.5573 2.68185 77.8269 2.32159L77.8439 2.29887C78.1318 1.91419 78.3701 1.60164 78.6837 1.37175C78.9778 1.15613 79.3595 1 79.9498 1C80.5401 1 80.9219 1.15613 81.216 1.37175C81.5295 1.60164 81.7679 1.91419 82.0558 2.29887L82.0728 2.32161C82.3423 2.68187 82.661 3.10779 83.1049 3.43325C83.5777 3.77986 84.1685 3.99854 84.9624 3.99854C85.7563 3.99854 86.3471 3.77986 86.8198 3.43325C87.2637 3.10779 87.5824 2.68187 87.8519 2.32161L87.8689 2.29887C88.1568 1.91419 88.3952 1.60164 88.7087 1.37175C89.0028 1.15613 89.3846 1 89.9749 1C90.5652 1 90.947 1.15613 91.2411 1.37175C91.5546 1.60164 91.793 1.91419 92.0809 2.29887L92.0978 2.32157C92.3674 2.68184 92.6861 3.10778 93.13 3.43325C93.6027 3.77986 94.1935 3.99854 94.9874 3.99854C95.7813 3.99854 96.3721 3.77986 96.8449 3.43325C97.2888 3.10779 97.6074 2.68186 97.877 2.32159L97.894 2.29887C98.1819 1.91419 98.4202 1.60164 98.7338 1.37175C99.0279 1.15613 99.4097 1 100 1V0C99.2061 0 98.6152 0.218683 98.1425 0.565291C97.6986 0.890748 97.3799 1.31667 97.1104 1.67693L97.0934 1.69967C96.8055 2.08435 96.5671 2.3969 96.2536 2.62679C95.9595 2.84241 95.5777 2.99854 94.9874 2.99854C94.3971 2.99854 94.0154 2.84241 93.7213 2.62679C93.4077 2.3969 93.1694 2.08435 92.8815 1.69967L92.8645 1.67697L92.8644 1.67691C92.5949 1.31666 92.2762 0.890743 91.8323 0.565291C91.3596 0.218683 90.7688 0 89.9749 0C89.181 0 88.5902 0.218683 88.1174 0.565291C87.6736 0.89073 87.3549 1.31662 87.0854 1.67687L87.0853 1.67694L87.0683 1.69967C86.7804 2.08435 86.5421 2.3969 86.2285 2.62679C85.9344 2.84241 85.5526 2.99854 84.9624 2.99854C84.3721 2.99854 83.9903 2.84241 83.6962 2.62679C83.3826 2.3969 83.1443 2.08435 82.8564 1.69967L82.8394 1.67693C82.5698 1.31667 82.2512 0.890748 81.8073 0.565291C81.3345 0.218683 80.7437 0 79.9498 0C79.1559 0 78.5651 0.218683 78.0924 0.565291C77.6485 0.890755 77.3298 1.31669 77.0603 1.67695L77.0433 1.69967C76.7554 2.08435 76.517 2.3969 76.2035 2.62679C75.9094 2.84241 75.5276 2.99854 74.9373 2.99854C74.347 2.99854 73.9652 2.84241 73.6711 2.62679C73.3576 2.3969 73.1192 2.08435 72.8313 1.69967L72.8143 1.67694C72.5448 1.31668 72.2261 0.890751 71.7822 0.565291C71.3095 0.218683 70.7187 0 69.9248 0C69.1309 0 68.5401 0.218683 68.0673 0.565291C67.6234 0.890755 67.3047 1.31669 67.0352 1.67695L67.0182 1.69967C66.7303 2.08435 66.4919 2.3969 66.1784 2.62679C65.8843 2.84241 65.5025 2.99854 64.9122 2.99854C64.322 2.99854 63.9402 2.84241 63.6461 2.62679C63.3325 2.3969 63.0942 2.08435 62.8063 1.69967L62.7893 1.67694C62.5197 1.31668 62.201 0.890753 61.7571 0.565291C61.2844 0.218683 60.6936 0 59.8997 0C59.1058 0 58.515 0.218683 58.0423 0.565291C57.5984 0.890744 57.2797 1.31666 57.0102 1.67691L57.0101 1.67694L56.9931 1.69967C56.7052 2.08435 56.4669 2.3969 56.1533 2.62679C55.8592 2.84241 55.4774 2.99854 54.8872 2.99854C54.2969 2.99854 53.9151 2.84241 53.621 2.62679C53.3074 2.3969 53.0691 2.08435 52.7812 1.69967L52.7642 1.67694C52.4947 1.31668 52.176 0.890754 51.7321 0.565291C51.3105 0.256188 50.795 0.0488236 50.1253 0.00756644V0C50.083 0 50.0412 0.000622442 50 0.00185354C49.9588 0.000622442 49.917 0 49.8746 0V0.00756644C49.205 0.0488236 48.6895 0.256188 48.2679 0.565291C47.824 0.890748 47.5053 1.31667 47.2358 1.67693L47.2188 1.69967C46.9309 2.08435 46.6925 2.3969 46.379 2.62679C46.0849 2.84241 45.7031 2.99854 45.1128 2.99854C44.5225 2.99854 44.1407 2.84241 43.8466 2.62679C43.5331 2.3969 43.2947 2.08435 43.0068 1.69967L42.9898 1.67697C42.7203 1.3167 42.4016 0.890761 41.9577 0.565291C41.485 0.218683 40.8941 0 40.1003 0C39.3064 0 38.7156 0.218683 38.2428 0.565291C37.7989 0.890754 37.4802 1.31668 37.2107 1.67694L37.1937 1.69967C36.9058 2.08435 36.6674 2.3969 36.3539 2.62679C36.0598 2.84241 35.678 2.99854 35.0877 2.99854C34.4974 2.99854 34.1157 2.84241 33.8216 2.62679C33.508 2.3969 33.2697 2.08435 32.9818 1.69967L32.9647 1.67693C32.6952 1.31667 32.3765 0.890748 31.9326 0.565291C31.4599 0.218683 30.8691 0 30.0752 0C29.2813 0 28.6905 0.218683 28.2177 0.565291C27.7738 0.890755 27.4552 1.31669 27.1856 1.67695L27.1686 1.69967C26.8807 2.08435 26.6424 2.3969 26.3288 2.62679C26.0347 2.84241 25.6529 2.99854 25.0627 2.99854C24.4724 2.99854 24.0906 2.84241 23.7965 2.62679C23.4829 2.3969 23.2446 2.08435 22.9567 1.69967L22.9397 1.67694C22.6701 1.31668 22.3515 0.890751 21.9076 0.565291C21.4348 0.218683 20.844 0 20.0501 0C19.2562 0 18.6654 0.218683 18.1927 0.565291C17.7488 0.890755 17.4301 1.31669 17.1606 1.67695L17.1436 1.69967C16.8557 2.08435 16.6173 2.3969 16.3038 2.62679C16.0097 2.84241 15.6279 2.99854 15.0376 2.99854C14.4473 2.99854 14.0655 2.84241 13.7714 2.62679C13.4579 2.3969 13.2195 2.08435 12.9316 1.69967L12.9146 1.67694C12.6451 1.31668 12.3264 0.890753 11.8825 0.565291C11.4098 0.218683 10.819 0 10.0251 0C9.23117 0 8.64036 0.218683 8.16762 0.565291C7.72371 0.890752 7.40505 1.31668 7.13551 1.67694L7.1355 1.67694L7.1185 1.69967C6.8306 2.08435 6.59225 2.3969 6.27869 2.62679C5.98461 2.84241 5.60281 2.99854 5.01253 2.99854C4.42225 2.99854 4.04046 2.84241 3.74637 2.62679C3.43282 2.3969 3.19447 2.08435 2.90657 1.69967L2.88956 1.67694C2.62002 1.31668 2.30135 0.890754 1.85745 0.565291C1.38471 0.218683 0.793893 0 0 0V1Z" fill="#BDBDBD"/>
</svg>
