<svg width="17" height="16" viewBox="0 0 17 16" fill="none" xmlns="http://www.w3.org/2000/svg">
<path d="M11.1667 5.33325C12.2275 5.33325 13.245 5.75468 13.9951 6.50482C14.7452 7.25497 15.1667 8.27239 15.1667 9.33325V13.9999H12.5V9.33325C12.5 8.97963 12.3595 8.64049 12.1095 8.39044C11.8594 8.14039 11.5203 7.99992 11.1667 7.99992C10.813 7.99992 10.4739 8.14039 10.2239 8.39044C9.97381 8.64049 9.83334 8.97963 9.83334 9.33325V13.9999H7.16667V9.33325C7.16667 8.27239 7.5881 7.25497 8.33824 6.50482C9.08839 5.75468 10.1058 5.33325 11.1667 5.33325V5.33325Z" stroke="#E76943" stroke-linecap="round" stroke-linejoin="round"/>
<path d="M4.49999 6H1.83333V14H4.49999V6Z" stroke="#E76943" stroke-linecap="round" stroke-linejoin="round"/>
<path d="M3.16666 3.99992C3.90304 3.99992 4.49999 3.40297 4.49999 2.66659C4.49999 1.93021 3.90304 1.33325 3.16666 1.33325C2.43028 1.33325 1.83333 1.93021 1.83333 2.66659C1.83333 3.40297 2.43028 3.99992 3.16666 3.99992Z" stroke="#E76943" stroke-linecap="round" stroke-linejoin="round"/>
</svg>
