<svg width="86" height="30" viewBox="0 0 86 30" fill="none" xmlns="http://www.w3.org/2000/svg">
<g clip-path="url(#clip0_316_2)">
<path d="M6.67973 12.3906C7.18112 12.3906 7.75427 12.4067 8.39826 12.4389C9.04226 12.4711 9.6481 12.5195 10.2158 12.5839V11.7452C10.2158 10.5405 9.98145 9.70716 9.51186 9.24441C9.04226 8.78166 8.31742 8.55073 7.33463 8.55073C6.65794 8.55073 6.10114 8.65277 5.66515 8.85684C5.22825 9.06182 4.92215 9.41089 4.74866 9.90586C4.66146 10.1636 4.55246 10.331 4.42076 10.4062C4.28996 10.4823 4.04926 10.519 3.70047 10.519H1.57138C1.22168 10.519 0.981886 10.4599 0.851089 10.3418C0.720292 10.2236 0.654894 10.0464 0.654894 9.8092C0.654894 8.97052 0.993694 8.18554 1.67039 7.45338C2.21628 6.87248 2.93567 6.42047 3.83126 6.09825C4.72595 5.77602 5.89404 5.61401 7.33463 5.61401C9.03771 5.61401 10.3738 5.83957 11.3457 6.29158C12.3167 6.74359 12.9998 7.41042 13.3922 8.29206C13.7846 9.17459 13.9817 10.2388 13.9817 11.4866V17.778C13.9817 18.725 13.7964 19.6227 13.4249 20.4721C13.0534 21.3225 12.4148 22.0045 11.5092 22.521C10.6036 23.0374 9.33201 23.2952 7.69523 23.2952H6.77783C4.46436 23.2952 2.75582 22.8709 1.65404 22.0206C0.550438 21.1721 0 19.8008 0 17.9078C0 16.5097 0.299743 15.407 0.900138 14.6005C1.50053 13.794 2.30802 13.2239 3.32352 12.89C4.33901 12.5571 5.45715 12.3897 6.67973 12.3897V12.3906ZM6.87593 15.3264C5.84954 15.3264 5.08019 15.5197 4.567 15.9073C4.0538 16.2949 3.79766 16.9509 3.79766 17.8756C3.79766 18.8002 4.04835 19.4455 4.55065 19.8116C5.05204 20.1777 5.76143 20.3603 6.67883 20.3603H7.23562C8.30471 20.3603 9.06951 20.1025 9.5273 19.586C9.98599 19.0696 10.2149 18.1987 10.2149 16.9724C10.2149 16.9724 10.1477 15.4392 8.31561 15.3595C7.58078 15.3273 7.28921 15.3273 6.87502 15.3273L6.87593 15.3264Z" fill="#E76943"/>
<path d="M33.7152 5.61381C35.4837 5.61381 36.798 6.13563 37.6609 7.17839C38.5229 8.22204 38.9544 9.64699 38.9544 11.4532L38.958 22.3587C38.958 22.7463 38.8872 22.9987 38.7455 23.1169C38.6029 23.235 38.3249 23.2941 37.9107 23.2941H36.1095C35.6945 23.2941 35.4165 23.235 35.2748 23.1169C35.1322 22.9987 35.0623 22.7454 35.0623 22.3587L35.0586 12.0341C35.0586 11.0451 34.867 10.287 34.4855 9.75977C34.1031 9.23257 33.41 8.96942 32.4064 8.96942C31.4027 8.96942 30.6815 9.29165 30.1147 9.93699C29.547 10.5823 29.2627 11.4649 29.2627 12.5828L29.2663 22.3587C29.2663 22.7463 29.1955 22.9987 29.0538 23.1169C28.9112 23.235 28.6332 23.2941 28.2181 23.2941H26.4178C26.0027 23.2941 25.7239 23.235 25.5822 23.1169C25.4405 22.9987 25.3697 22.7454 25.3697 22.3587L25.366 12.0341C25.366 11.0451 25.1744 10.287 24.7929 9.75977C24.4105 9.23257 23.7174 8.96942 22.7137 8.96942C21.7101 8.96942 20.9889 9.29165 20.4212 9.93699C19.8535 10.5823 19.5701 11.4649 19.5701 12.5828L19.5737 22.3587C19.5737 22.7463 19.5029 22.9987 19.3612 23.1169C19.2186 23.235 18.9406 23.2941 18.5264 23.2941H16.7252C16.3101 23.2941 16.0322 23.235 15.8905 23.1169C15.7479 22.9987 15.678 22.7454 15.678 22.3587L15.6743 7.00027C15.6743 6.61271 15.7452 6.3603 15.8869 6.24215C16.0286 6.124 16.3065 6.06492 16.7216 6.06492H18.4574C18.8716 6.06492 19.1504 6.124 19.2921 6.24215C19.4338 6.3603 19.5047 6.61271 19.5047 7.00027V7.64562C20.5302 6.29048 22.0361 5.61292 24.0235 5.61292C25.1144 5.61292 26.0309 5.81789 26.7739 6.22604C27.5151 6.63508 28.0946 7.21598 28.5088 7.96873C29.0329 7.21598 29.7423 6.63508 30.637 6.22604C31.5316 5.81789 32.558 5.61292 33.7152 5.61292V5.61381Z" fill="#E76943"/>
<path d="M60.2341 0.935346V7.42101C61.3259 6.21625 62.8536 5.61387 64.8183 5.61387C66.6731 5.61387 68.0537 6.13569 68.9602 7.17845C69.8658 8.2221 70.3191 9.64704 70.3191 11.4533V22.3588C70.3191 22.7249 70.2537 22.9719 70.1229 23.1008C69.9921 23.2297 69.7078 23.2941 69.2709 23.2941H67.4706C67.0555 23.2941 66.7766 23.2297 66.635 23.1008C66.4933 22.9719 66.4224 22.7249 66.4224 22.3588V12.0342C66.4224 11.0451 66.2144 10.287 65.8002 9.75982C65.3851 9.23263 64.6321 8.96948 63.5412 8.96948C62.5148 8.96948 61.7074 9.2917 61.1179 9.93705C60.5284 10.5824 60.2332 11.4649 60.2332 12.5829V22.3588C60.2332 22.7249 60.1678 22.9719 60.037 23.1008C59.9062 23.2297 59.6219 23.2941 59.185 23.2941H57.3847C56.9696 23.2941 56.6907 23.2297 56.55 23.1008C56.4073 22.9719 56.3374 22.7249 56.3374 22.3588V0.935346C56.3374 0.570158 56.4083 0.322225 56.55 0.193335C56.6916 0.0644449 56.9696 0 57.3847 0H59.185C59.621 0 59.9053 0.0644449 60.037 0.193335C60.1678 0.322225 60.2332 0.570158 60.2332 0.935346H60.2341Z" fill="#E76943"/>
<path d="M47.3493 12.3906C47.8507 12.3906 48.4238 12.4067 49.0678 12.4389C49.7118 12.4711 50.3177 12.5195 50.8854 12.5839V11.7452C50.8854 10.5405 50.651 9.70716 50.1814 9.24441C49.7118 8.78166 48.987 8.55073 48.0042 8.55073C47.3275 8.55073 46.7707 8.65277 46.3347 8.85684C45.8978 9.06182 45.5917 9.41089 45.4182 9.90586C45.331 10.1636 45.222 10.331 45.0903 10.4062C44.9595 10.4823 44.7188 10.519 44.37 10.519H42.2419C41.8922 10.519 41.6524 10.4599 41.5216 10.3418C41.3908 10.2236 41.3254 10.0464 41.3254 9.8092C41.3254 8.97052 41.6642 8.18554 42.3409 7.45338C42.8868 6.87248 43.6061 6.42047 44.5017 6.09825C45.3964 5.77602 46.5645 5.61401 48.0051 5.61401C49.7082 5.61401 51.0443 5.83957 52.0162 6.29158C52.9872 6.74359 53.6703 7.41042 54.0626 8.29206C54.455 9.17459 54.6521 10.2388 54.6521 11.4866V17.778C54.6521 18.725 54.4668 19.6227 54.0953 20.4721C53.7238 21.3225 53.0853 22.0045 52.1797 22.521C51.2741 23.0374 50.0025 23.2952 48.3657 23.2952H47.4483C45.1348 23.2952 43.4263 22.8709 42.3245 22.0206C41.2218 21.1712 40.6714 19.7999 40.6714 17.9069C40.6714 16.5088 40.9711 15.4061 41.5715 14.5996C42.1719 13.7931 42.9794 13.223 43.9949 12.8891C45.0104 12.5562 46.1285 12.3888 47.3511 12.3888L47.3493 12.3906ZM47.5455 15.3264C46.5191 15.3264 45.7498 15.5197 45.2366 15.9073C44.7234 16.2949 44.4672 16.9509 44.4672 17.8756C44.4672 18.8002 44.7179 19.4455 45.2202 19.8116C45.7216 20.1777 46.431 20.3603 47.3484 20.3603H47.9052C48.9743 20.3603 49.7391 20.1025 50.1969 19.586C50.6556 19.0696 50.8845 18.1987 50.8845 16.9724C50.8845 16.9724 50.8172 15.4392 48.9852 15.3595C48.2504 15.3273 47.9588 15.3273 47.5446 15.3273L47.5455 15.3264Z" fill="#E76943"/>
<path d="M78.6895 12.3906C79.1909 12.3906 79.7641 12.4067 80.4081 12.4389C81.0521 12.4711 81.6579 12.5195 82.2256 12.5839V11.7452C82.2256 10.5405 81.9913 9.70716 81.5217 9.24441C81.0521 8.78166 80.3272 8.55073 79.3444 8.55073C78.6677 8.55073 78.1109 8.65277 77.675 8.85684C77.2381 9.06182 76.9319 9.41089 76.7585 9.90586C76.6713 10.1636 76.5623 10.331 76.4306 10.4062C76.2998 10.4823 76.0591 10.519 75.7103 10.519H73.5821C73.2324 10.519 72.9926 10.4599 72.8618 10.3418C72.731 10.2236 72.6656 10.0464 72.6656 9.8092C72.6656 8.97052 73.0044 8.18554 73.6811 7.45338C74.227 6.87248 74.9464 6.42047 75.842 6.09825C76.7367 5.77602 77.9048 5.61401 79.3453 5.61401C81.0484 5.61401 82.3846 5.83957 83.3565 6.29158C84.3275 6.74359 85.0105 7.41042 85.4029 8.29206C85.7953 9.17459 85.9924 10.2388 85.9924 11.4866V17.778C85.9924 18.725 85.8071 19.6227 85.4356 20.4721C85.0641 21.3225 84.4256 22.0045 83.52 22.521C82.6144 23.0374 81.3427 23.2952 79.7059 23.2952H78.7885C76.4751 23.2952 74.7665 22.8709 73.6647 22.0206C72.562 21.1712 72.0116 19.7999 72.0116 17.9069C72.0116 16.5088 72.3113 15.4061 72.9117 14.5996C73.5121 13.7931 74.3196 13.223 75.3351 12.8891C76.3506 12.5562 77.4688 12.3888 78.6914 12.3888L78.6895 12.3906ZM78.8857 15.3264C77.8593 15.3264 77.09 15.5197 76.5768 15.9073C76.0636 16.2949 75.8075 16.9509 75.8075 17.8756C75.8075 18.8002 76.0581 19.4455 76.5604 19.8116C77.0618 20.1777 77.7712 20.3603 78.6886 20.3603H79.2454C80.3145 20.3603 81.0793 20.1025 81.5371 19.586C81.9958 19.0696 82.2247 18.1987 82.2247 16.9724C82.2247 16.9724 82.1575 15.4392 80.3254 15.3595C79.5906 15.3273 79.299 15.3273 78.8848 15.3273L78.8857 15.3264Z" fill="#E76943"/>
<path d="M1.30161 29.9539V28.332L1.33431 28.5594L0 26.7021H0.815665L1.83388 28.1423L1.51325 28.128L2.43246 26.7012H3.21997L1.94197 28.6113L2.01282 28.2953V29.9539H1.3007H1.30161Z" fill="#4C4C4C"/>
<path d="M5.21738 30.0006C4.97577 30.0006 4.75233 29.9585 4.54795 29.8753C4.34358 29.7911 4.16555 29.6748 4.01296 29.5244C3.86036 29.374 3.74319 29.1959 3.66144 28.99C3.57969 28.7842 3.53882 28.5604 3.53882 28.3187C3.53882 28.0771 3.57969 27.8506 3.66144 27.6474C3.74319 27.4443 3.86036 27.267 4.01296 27.1158C4.16555 26.9636 4.34358 26.8463 4.54795 26.7622C4.75233 26.679 4.97577 26.6369 5.21738 26.6369C5.45899 26.6369 5.68698 26.679 5.88953 26.7622C6.09209 26.8463 6.27012 26.9636 6.42271 27.1158C6.57531 27.2679 6.69248 27.4451 6.77423 27.6501C6.85598 27.8551 6.89685 28.078 6.89685 28.3187C6.89685 28.5595 6.85598 28.7833 6.77423 28.9874C6.69248 29.1923 6.57531 29.3704 6.42271 29.5217C6.27012 29.6739 6.093 29.7911 5.88953 29.8753C5.68698 29.9585 5.46263 30.0006 5.21738 30.0006ZM5.21738 29.3409C5.35544 29.3409 5.48352 29.3158 5.6016 29.2666C5.71968 29.2174 5.8205 29.1458 5.90588 29.0527C5.99126 28.9596 6.05757 28.8513 6.10662 28.7278C6.15567 28.6043 6.17929 28.4673 6.17929 28.3187C6.17929 28.1702 6.15476 28.0341 6.10662 27.9097C6.05757 27.7853 5.99126 27.6779 5.90588 27.5866C5.82141 27.4953 5.71968 27.4237 5.6016 27.3726C5.48352 27.3216 5.35544 27.2957 5.21738 27.2957C5.07932 27.2957 4.95215 27.3216 4.83589 27.3726C4.71963 27.4237 4.61699 27.4953 4.52979 27.5866C4.44168 27.6779 4.37537 27.7853 4.32905 27.9097C4.28364 28.0332 4.26093 28.1702 4.26093 28.3187C4.26093 28.4673 4.28364 28.6043 4.32905 28.7278C4.37447 28.8522 4.44168 28.9605 4.52979 29.0527C4.61789 29.1458 4.71963 29.2174 4.83589 29.2666C4.95215 29.3158 5.07932 29.3409 5.21738 29.3409Z" fill="#4C4C4C"/>
<path d="M9.18059 29.983C8.91354 29.983 8.67557 29.9284 8.46665 29.8183C8.25774 29.7082 8.09334 29.557 7.97435 29.3627C7.85445 29.1694 7.79541 28.9501 7.79541 28.7049V26.6981H8.50753V28.6637C8.50753 28.7944 8.5375 28.9107 8.59745 29.0146C8.6574 29.1184 8.73824 29.2016 8.83997 29.2634C8.9417 29.3251 9.05615 29.3565 9.1815 29.3565C9.30684 29.3565 9.42765 29.3251 9.53301 29.2634C9.63838 29.2016 9.72194 29.1184 9.7828 29.0146C9.84366 28.9107 9.87454 28.7944 9.87454 28.6637V26.6981H10.563V28.7049C10.563 28.9492 10.5031 29.1685 10.3841 29.3627C10.2642 29.5561 10.1007 29.7082 9.8918 29.8183C9.68288 29.9284 9.44672 29.983 9.1824 29.983H9.18059Z" fill="#4C4C4C"/>
<path d="M11.6773 29.9539V26.7012H13.1388C13.3431 26.7012 13.5284 26.7469 13.6956 26.8382C13.8618 26.9295 13.9935 27.053 14.0889 27.2078C14.1852 27.3627 14.2324 27.539 14.2324 27.7377C14.2324 27.9364 14.1842 28.1101 14.0889 28.2694C13.9926 28.4287 13.8618 28.5549 13.6956 28.648C13.5294 28.7411 13.3431 28.7876 13.1388 28.7876H12.3604V29.9539H11.6764H11.6773ZM12.3613 28.2211H13.1061C13.1905 28.2211 13.2659 28.2014 13.3304 28.1629C13.3949 28.1244 13.444 28.0698 13.4785 28C13.513 27.9302 13.5303 27.8523 13.5303 27.7655C13.5303 27.6724 13.5094 27.5918 13.4685 27.5238C13.4276 27.4558 13.3677 27.4021 13.2896 27.3636C13.2105 27.3251 13.1197 27.3054 13.0162 27.3054H12.3604V28.2211H12.3613ZM13.5493 29.9539L12.7101 28.486L13.4358 28.3696L14.3695 29.9584L13.5493 29.9539Z" fill="#4C4C4C"/>
<path d="M16.9864 29.9539V26.7012H17.6322L18.8349 28.6292L18.4107 28.6247L19.6269 26.7012H20.2446V29.9539H19.5515V28.8387C19.5515 28.5603 19.5588 28.3088 19.5724 28.0859C19.5869 27.863 19.6106 27.6411 19.6451 27.4218L19.7295 27.6402L18.7631 29.1179H18.4515L17.5042 27.65L17.5841 27.4227C17.6186 27.6303 17.6431 27.8433 17.6568 28.0617C17.6713 28.2801 17.6777 28.5397 17.6777 28.8396V29.9548H16.9846L16.9864 29.9539Z" fill="#4C4C4C"/>
<path d="M21.3915 29.9539V26.7012H23.6214V27.3144H22.08V29.3399H23.655V29.953H21.3915V29.9539ZM21.7212 28.5925V27.9982H23.3952V28.5925H21.7212Z" fill="#4C4C4C"/>
<path d="M24.6716 29.9539V26.7012H25.3038L27.1286 29.1313H26.9969C26.9842 29.0356 26.9733 28.9416 26.9642 28.8503C26.9551 28.759 26.946 28.6659 26.9379 28.5719C26.9297 28.4779 26.9242 28.3795 26.9188 28.2792C26.9143 28.179 26.9097 28.0716 26.907 27.9588C26.9034 27.846 26.9024 27.7225 26.9024 27.5891V26.7021H27.5955V29.9548H26.9542L25.0922 27.5014L25.2711 27.5059C25.2866 27.667 25.3002 27.804 25.3111 27.9176C25.322 28.0304 25.3311 28.1289 25.3365 28.213C25.3429 28.2962 25.3483 28.3696 25.3529 28.4314C25.3574 28.4932 25.361 28.5522 25.3619 28.6077C25.3629 28.6632 25.3647 28.7223 25.3647 28.7841V29.9548H24.6716V29.9539Z" fill="#4C4C4C"/>
<path d="M29.4143 29.9539V27.3287H28.4524V26.7012H31.1119V27.3287H30.1219V29.9539H29.4143Z" fill="#4C4C4C"/>
<path d="M31.3569 29.9539L32.6486 26.7012H33.2807L34.5678 29.9539H33.8421L33.1772 28.2023C33.1581 28.153 33.1354 28.0895 33.1091 28.0116C33.0827 27.9346 33.0546 27.8523 33.0264 27.7655C32.9983 27.6786 32.971 27.5963 32.9465 27.5166C32.921 27.4379 32.902 27.3716 32.8902 27.3188L33.0173 27.3144C32.9983 27.386 32.9774 27.4594 32.9537 27.5354C32.9301 27.6115 32.9056 27.6885 32.8811 27.7673C32.8556 27.846 32.8293 27.923 32.8012 27.9973C32.773 28.0716 32.7457 28.1441 32.7212 28.2157L32.0563 29.953H31.3587L31.3569 29.9539ZM31.9555 29.271L32.1862 28.7089H33.6995L33.9356 29.271H31.9555Z" fill="#4C4C4C"/>
<path d="M35.3047 29.9539V26.7012H36.0123V29.3265H37.5064V29.9539H35.3047Z" fill="#4C4C4C"/>
<path d="M40.179 29.9539V26.7012H40.8865V29.9539H40.179ZM40.4614 28.648L40.466 28.0161H42.6205V28.648H40.4614ZM42.2581 29.9539V26.7012H42.9657V29.9539H42.2581Z" fill="#4C4C4C"/>
<path d="M44.1101 29.9539V26.7012H46.34V27.3144H44.7986V29.3399H46.3736V29.953H44.1101V29.9539ZM44.4398 28.5925V27.9982H46.1138V28.5925H44.4398Z" fill="#4C4C4C"/>
<path d="M46.9978 29.9539L48.2894 26.7012H48.9216L50.2087 29.9539H49.4829L48.8181 28.2023C48.799 28.153 48.7763 28.0895 48.7499 28.0116C48.7236 27.9346 48.6954 27.8523 48.6673 27.7655C48.6391 27.6786 48.6119 27.5963 48.5874 27.5166C48.5619 27.4379 48.5428 27.3716 48.531 27.3188L48.6582 27.3144C48.6391 27.386 48.6182 27.4594 48.5946 27.5354C48.571 27.6115 48.5465 27.6885 48.522 27.7673C48.4965 27.846 48.4702 27.923 48.442 27.9973C48.4139 28.0716 48.3866 28.1441 48.3621 28.2157L47.6972 29.953H46.9996L46.9978 29.9539ZM47.5964 29.271L47.8271 28.7089H49.3403L49.5765 29.271H47.5964Z" fill="#4C4C4C"/>
<path d="M50.954 29.9539V26.7012H51.6616V29.3265H53.1557V29.9539H50.954Z" fill="#4C4C4C"/>
<path d="M54.3863 29.9539V27.3287H53.4244V26.7012H56.084V27.3287H55.0939V29.9539H54.3863Z" fill="#4C4C4C"/>
<path d="M56.9382 29.9539V26.7012H57.6458V29.9539H56.9382ZM57.2207 28.648L57.2253 28.0161H59.3798V28.648H57.2207ZM59.0174 29.9539V26.7012H59.7249V29.9539H59.0174Z" fill="#4C4C4C"/>
<path d="M62.6053 29.9539V26.7012H64.006C64.2003 26.7012 64.3775 26.7469 64.5364 26.8382C64.6954 26.9295 64.8207 27.0539 64.9134 27.2123C65.006 27.3707 65.0523 27.548 65.0523 27.7467C65.0523 27.9454 65.006 28.1298 64.9134 28.29C64.8207 28.4511 64.6945 28.5791 64.5364 28.6731C64.3775 28.767 64.2003 28.8145 64.006 28.8145H63.3129V29.953H62.6053V29.9539ZM63.3029 28.1879H63.9251C64.0005 28.1879 64.0677 28.1682 64.1277 28.1298C64.1876 28.0913 64.2349 28.0394 64.2712 27.974C64.3075 27.9087 64.3257 27.8344 64.3257 27.7511C64.3257 27.6679 64.3075 27.5945 64.2712 27.5301C64.2349 27.4665 64.1867 27.4173 64.1277 27.3815C64.0677 27.3457 64.0005 27.3278 63.9251 27.3278H63.3029V28.187V28.1879Z" fill="#4C4C4C"/>
<path d="M65.2762 29.9539L66.5679 26.7012H67.2001L68.4871 29.9539H67.7614L67.0965 28.2023C67.0774 28.153 67.0547 28.0895 67.0284 28.0116C67.002 27.9346 66.9739 27.8523 66.9457 27.7655C66.9176 27.6786 66.8903 27.5963 66.8658 27.5166C66.8404 27.4379 66.8213 27.3716 66.8095 27.3188L66.9366 27.3144C66.9176 27.386 66.8967 27.4594 66.8731 27.5354C66.8494 27.6115 66.8249 27.6885 66.8004 27.7673C66.775 27.846 66.7486 27.923 66.7205 27.9973C66.6923 28.0716 66.6651 28.1441 66.6405 28.2157L65.9756 29.953H65.2781L65.2762 29.9539ZM65.8748 29.271L66.1055 28.7089H67.6188L67.8549 29.271H65.8748Z" fill="#4C4C4C"/>
<path d="M69.2249 29.9539V26.7012H70.6864C70.8908 26.7012 71.0761 26.7469 71.2432 26.8382C71.4094 26.9295 71.5411 27.053 71.6365 27.2078C71.7328 27.3627 71.78 27.539 71.78 27.7377C71.78 27.9364 71.7319 28.1101 71.6365 28.2694C71.5402 28.4287 71.4094 28.5549 71.2432 28.648C71.077 28.7411 70.8908 28.7876 70.6864 28.7876H69.908V29.9539H69.224H69.2249ZM69.9089 28.2211H70.6537C70.7382 28.2211 70.8135 28.2014 70.878 28.1629C70.9425 28.1244 70.9916 28.0698 71.0261 28C71.0606 27.9302 71.0779 27.8523 71.0779 27.7655C71.0779 27.6724 71.057 27.5918 71.0161 27.5238C70.9752 27.4558 70.9153 27.4021 70.8372 27.3636C70.7581 27.3251 70.6673 27.3054 70.5638 27.3054H69.908V28.2211H69.9089ZM71.0969 29.9539L70.2577 28.486L70.9834 28.3696L71.9171 29.9584L71.0969 29.9539Z" fill="#4C4C4C"/>
<path d="M73.3992 29.9539V27.3287H72.4373V26.7012H75.0968V27.3287H74.1067V29.9539H73.3992Z" fill="#4C4C4C"/>
<path d="M75.9678 29.9539V26.7012H76.6L78.4248 29.1313H78.2931C78.2803 29.0356 78.2695 28.9416 78.2604 28.8503C78.2513 28.759 78.2422 28.6659 78.234 28.5719C78.2258 28.4779 78.2204 28.3795 78.215 28.2792C78.2104 28.179 78.2059 28.0716 78.2031 27.9588C78.1995 27.846 78.1986 27.7225 78.1986 27.5891V26.7021H78.8916V29.9548H78.2504L76.3883 27.5014L76.5673 27.5059C76.5827 27.667 76.5963 27.804 76.6072 27.9176C76.6181 28.0304 76.6272 28.1289 76.6327 28.213C76.639 28.2962 76.6445 28.3696 76.649 28.4314C76.6536 28.4932 76.6572 28.5522 76.6581 28.6077C76.659 28.6632 76.6608 28.7223 76.6608 28.7841V29.9548H75.9678V29.9539Z" fill="#4C4C4C"/>
<path d="M80.0325 29.9539V26.7012H82.2624V27.3144H80.721V29.3399H82.296V29.953H80.0325V29.9539ZM80.3622 28.5925V27.9982H82.0362V28.5925H80.3622Z" fill="#4C4C4C"/>
<path d="M83.3051 29.9539V26.7012H84.7666C84.971 26.7012 85.1563 26.7469 85.3234 26.8382C85.4896 26.9295 85.6213 27.053 85.7167 27.2078C85.813 27.3627 85.8602 27.539 85.8602 27.7377C85.8602 27.9364 85.8121 28.1101 85.7167 28.2694C85.6204 28.4287 85.4896 28.5549 85.3234 28.648C85.1572 28.7411 84.971 28.7876 84.7666 28.7876H83.9882V29.9539H83.3042H83.3051ZM83.9891 28.2211H84.7339C84.8184 28.2211 84.8937 28.2014 84.9582 28.1629C85.0227 28.1244 85.0718 28.0698 85.1063 28C85.1408 27.9302 85.1581 27.8523 85.1581 27.7655C85.1581 27.6724 85.1372 27.5918 85.0963 27.5238C85.0554 27.4558 84.9955 27.4021 84.9174 27.3636C84.8383 27.3251 84.7475 27.3054 84.644 27.3054H83.9882V28.2211H83.9891ZM85.1771 29.9539L84.3379 28.486L85.0636 28.3696L85.9973 29.9584L85.1771 29.9539Z" fill="#4C4C4C"/>
</g>
<defs>
<clipPath id="clip0_316_2">
<rect width="86" height="30" fill="white"/>
</clipPath>
</defs>
</svg>
