<svg width="150" height="54" viewBox="0 0 150 54" fill="none" xmlns="http://www.w3.org/2000/svg">
<path d="M11.6632 22.3089C12.5384 22.3089 13.5382 22.3379 14.6627 22.3959C15.7872 22.4538 16.8437 22.5408 17.8322 22.6567V21.1474C17.8322 18.9803 17.4229 17.4809 16.6044 16.6493C16.0872 16.197 15.4843 15.8535 14.8316 15.639C14.1789 15.4245 13.4897 15.3435 12.805 15.4008C11.8055 15.3651 10.8106 15.5536 9.89348 15.9525C9.51128 16.1401 9.17192 16.4045 8.89666 16.7293C8.62139 17.054 8.41614 17.4321 8.29375 17.8398C8.21347 18.197 8.01125 18.5151 7.72184 18.7394C7.32535 18.9058 6.89463 18.9744 6.46605 18.9393H2.75567C2.31192 18.9869 1.86585 18.8734 1.49888 18.6194C1.37744 18.493 1.2841 18.3423 1.225 18.1773C1.16589 18.0123 1.14236 17.8366 1.15594 17.6618C1.18676 16.0756 1.81978 14.5605 2.92664 13.4236C3.96894 12.3223 5.26165 11.4887 6.69501 10.9936C8.66562 10.3508 10.7332 10.0561 12.805 10.123C15.1989 10.0148 17.5876 10.431 19.8038 11.3425C21.4002 12.0559 22.673 13.339 23.3732 14.941C24.1028 16.7672 24.4525 18.7228 24.4011 20.6886V32.0038C24.4088 33.6689 24.0785 35.3181 23.4302 36.8518C22.7524 38.4144 21.5784 39.71 20.0898 40.5383C18.0321 41.575 15.7387 42.0551 13.4379 41.9307H11.8382C7.80283 41.9307 4.82433 41.1663 2.90265 39.6377C0.980968 38.109 0.0184627 35.6417 0.0151299 32.2357C-0.100488 30.1372 0.448808 28.0556 1.58487 26.2872C2.63031 24.8367 4.11221 23.7583 5.81416 23.2095C7.70274 22.5913 9.68007 22.2873 11.6672 22.3099M12.0101 27.5927C10.5897 27.4892 9.17467 27.8563 7.9838 28.6372C7.49997 29.0825 7.12674 29.6345 6.89381 30.2493C6.66087 30.8641 6.57466 31.5248 6.64202 32.1788C6.57038 32.8219 6.65207 33.4728 6.88042 34.0783C7.10877 34.6838 7.47729 35.2266 7.9558 35.6623C9.05356 36.384 10.3559 36.7302 11.6672 36.6489H12.638C13.3659 36.7217 14.1009 36.6348 14.7917 36.3941C15.4825 36.1534 16.1124 35.7648 16.6374 35.2555C17.4372 34.3265 17.8372 32.7605 17.8372 30.5574C17.7687 29.7394 17.3851 28.9799 16.7673 28.4391C16.1495 27.8983 15.3458 27.6185 14.5257 27.6587C13.2449 27.6007 12.736 27.6007 12.0141 27.6007" fill="#E76943"/>
<path d="M58.8153 10.1181C61.8988 10.1181 64.1924 11.0567 65.6961 12.934C67.3102 15.1643 68.1068 17.8823 67.9518 20.6308L67.9588 40.2526C67.9913 40.4933 67.9751 40.7381 67.9112 40.9725C67.8474 41.2069 67.737 41.426 67.5868 41.617C67.1491 41.8785 66.6381 41.9905 66.1311 41.9359H62.9906C62.4836 41.9907 61.9725 41.8787 61.5348 41.617C61.3844 41.4262 61.274 41.207 61.2101 40.9726C61.1462 40.7382 61.1301 40.4933 61.1629 40.2526L61.1559 21.6763C61.2456 20.2421 60.8969 18.8145 60.1561 17.583C59.4895 16.6354 58.2807 16.1613 56.5297 16.1606C55.7746 16.1284 55.0221 16.2685 54.3292 16.5702C53.6363 16.8719 53.0211 17.3273 52.5303 17.9019C51.4755 19.2567 50.9476 20.9478 51.0446 22.6619L51.0516 40.2546C51.084 40.4952 51.0679 40.74 51.0042 40.9743C50.9405 41.2086 50.8305 41.4279 50.6806 41.619C50.2426 41.8806 49.7312 41.9925 49.2239 41.9379H46.0844C45.5771 41.9928 45.0656 41.8808 44.6277 41.619C44.4777 41.4279 44.3676 41.2087 44.3038 40.9744C44.2401 40.74 44.2241 40.4952 44.2567 40.2546L44.2497 21.6783C44.3393 20.2441 43.9906 18.8165 43.2499 17.585C42.5833 16.6374 41.3745 16.1633 39.6235 16.1626C38.8684 16.1306 38.116 16.2707 37.4231 16.5724C36.7302 16.8741 36.115 17.3294 35.6242 17.9039C34.5702 19.2591 34.0427 20.95 34.1394 22.6639L34.1464 40.2566C34.179 40.4972 34.163 40.742 34.0993 40.9764C34.0356 41.2107 33.9255 41.4299 33.7755 41.621C33.3377 41.8825 32.8267 41.9944 32.3197 41.9399H29.1792C28.6722 41.9947 28.1611 41.8827 27.7235 41.621C27.5733 41.43 27.4631 41.2109 27.3993 40.9765C27.3356 40.7421 27.3197 40.4972 27.3525 40.2566L27.3455 12.6241C27.3127 12.3834 27.3286 12.1386 27.3924 11.9042C27.4561 11.6698 27.5663 11.4506 27.7165 11.2597C28.1543 10.9983 28.6652 10.8863 29.1723 10.9408H32.1987C32.7057 10.8866 33.2166 10.9985 33.6545 11.2597C33.8045 11.4507 33.9147 11.6699 33.9784 11.9043C34.0421 12.1386 34.0581 12.3834 34.0254 12.6241V13.7856C34.9331 12.5712 36.1283 11.6013 37.5037 10.9629C38.879 10.3245 40.3915 10.0376 41.9051 10.1281C43.5733 10.0712 45.2274 10.4502 46.7043 11.2277C47.9937 11.9595 49.0443 13.048 49.7298 14.3624C50.6563 12.9972 51.9401 11.9129 53.4412 11.2277C55.1268 10.4675 56.9605 10.0919 58.8093 10.1281" fill="#E76943"/>
<path d="M105.067 1.70063V13.3698C106.076 12.2692 107.317 11.4065 108.7 10.8442C110.083 10.2818 111.574 10.0338 113.065 10.1181C116.3 10.1181 118.708 11.0567 120.288 12.9339C121.974 15.1335 122.814 17.8643 122.658 20.6307V40.2525C122.712 40.7246 122.59 41.2 122.316 41.588C121.878 41.8785 121.351 42.0019 120.83 41.9358H117.689C117.178 41.9938 116.663 41.8707 116.233 41.588C115.938 41.2089 115.805 40.7291 115.862 40.2525V21.6713C115.955 20.2254 115.574 18.7884 114.776 17.579C114.053 16.6314 112.74 16.1573 110.837 16.1566C110.047 16.1169 109.259 16.2524 108.529 16.5535C107.798 16.8546 107.143 17.3137 106.611 17.8979C105.521 19.2368 104.97 20.9342 105.067 22.6579V40.2505C105.121 40.7226 104.999 41.198 104.725 41.586C104.288 41.8763 103.761 41.9998 103.24 41.9338H100.099C99.5884 41.9923 99.0731 41.8691 98.6437 41.586C98.3489 41.2071 98.2156 40.7272 98.2727 40.2505V1.70063C98.2156 1.22402 98.3489 0.744116 98.6437 0.365189C99.073 0.0819599 99.5884 -0.0411842 100.099 0.0173346H103.24C103.761 -0.0485973 104.288 0.0748681 104.725 0.365189C104.999 0.753244 105.12 1.22861 105.067 1.70063Z" fill="#E76943"/>
<path d="M82.5823 22.3089C83.4575 22.3089 84.4573 22.3379 85.5818 22.3959C86.7063 22.4538 87.7628 22.5408 88.7513 22.6568V21.1474C88.7513 18.9803 88.342 17.4809 87.5235 16.6493C87.0063 16.197 86.4034 15.8535 85.7507 15.639C85.098 15.4245 84.4088 15.3435 83.7241 15.4008C82.7246 15.3651 81.7297 15.5536 80.8126 15.9525C80.4304 16.1401 80.091 16.4045 79.8157 16.7292C79.5404 17.054 79.3352 17.432 79.2129 17.8398C79.1327 18.197 78.9304 18.5151 78.641 18.7394C78.2445 18.9058 77.8137 18.9743 77.3852 18.9393H73.6738C73.23 18.9869 72.784 18.8734 72.417 18.6194C72.2956 18.493 72.2022 18.3423 72.1431 18.1773C72.084 18.0123 72.0605 17.8366 72.074 17.6618C72.1049 16.0756 72.7379 14.5605 73.8448 13.4236C74.887 12.3223 76.1797 11.4887 77.6131 10.9936C79.5837 10.3508 81.6513 10.0561 83.7231 10.123C86.1171 10.0148 88.5057 10.431 90.7219 11.3425C92.3183 12.0559 93.5911 13.339 94.2913 14.941C95.0208 16.7672 95.3706 18.7228 95.3192 20.6886V32.0039C95.3269 33.6689 94.9966 35.3181 94.3483 36.8518C93.6706 38.4144 92.4965 39.7101 91.0079 40.5383C88.9502 41.575 86.6569 42.0551 84.356 41.9307H82.7563C78.721 41.9307 75.7421 41.1664 73.8198 39.6377C71.8974 38.109 70.9362 35.6417 70.9362 32.2358C70.8205 30.1366 71.3698 28.0544 72.506 26.2852C73.5505 24.8358 75.0309 23.7578 76.7313 23.2085C78.6199 22.5903 80.5972 22.2864 82.5843 22.3089M82.9272 27.5917C81.5071 27.4884 80.0925 27.8555 78.9019 28.6363C78.4181 29.0815 78.0448 29.6335 77.8119 30.2483C77.579 30.8631 77.4928 31.5238 77.5601 32.1778C77.4885 32.8209 77.5702 33.4718 77.7985 34.0773C78.0269 34.6828 78.3954 35.2256 78.8739 35.6613C79.9717 36.3831 81.274 36.7293 82.5853 36.6479H83.5561C84.284 36.7208 85.0191 36.6339 85.7099 36.3932C86.4007 36.1525 87.0305 35.7639 87.5555 35.2545C88.3553 34.3256 88.7553 32.7595 88.7553 30.5565C88.6868 29.7384 88.3032 28.9789 87.6854 28.4381C87.0677 27.8973 86.264 27.6175 85.4438 27.6577C84.163 27.5997 83.6541 27.5997 82.9312 27.5997" fill="#E76943"/>
<path d="M137.257 22.3089C138.132 22.3089 139.132 22.3379 140.257 22.3959C141.381 22.4538 142.438 22.5408 143.426 22.6567V21.1474C143.426 18.9803 143.017 17.4809 142.198 16.6493C141.681 16.197 141.078 15.8535 140.426 15.639C139.773 15.4245 139.084 15.3435 138.399 15.4008C137.399 15.3649 136.404 15.5535 135.486 15.9525C135.104 16.1401 134.765 16.4045 134.49 16.7292C134.214 17.054 134.009 17.432 133.887 17.8398C133.807 18.197 133.604 18.5151 133.315 18.7394C132.918 18.9058 132.488 18.9744 132.059 18.9393H128.35C127.906 18.9869 127.46 18.8734 127.093 18.6194C126.971 18.493 126.878 18.3423 126.819 18.1773C126.76 18.0122 126.736 17.8366 126.75 17.6618C126.781 16.0756 127.414 14.5605 128.521 13.4236C129.563 12.3223 130.856 11.4887 132.289 10.9936C134.26 10.3508 136.327 10.0561 138.399 10.123C140.793 10.0148 143.182 10.431 145.398 11.3425C146.994 12.0559 148.267 13.3391 148.967 14.941C149.697 16.7671 150.047 18.7228 149.995 20.6886V32.0038C150.003 33.6688 149.672 35.3181 149.024 36.8518C148.346 38.4144 147.172 39.71 145.684 40.5383C143.626 41.575 141.333 42.0551 139.032 41.9307H137.432C133.397 41.9307 130.419 41.1663 128.497 39.6377C126.574 38.109 125.613 35.6417 125.613 32.2357C125.497 30.1365 126.046 28.0542 127.183 26.2852C128.227 24.8357 129.708 23.7577 131.408 23.2085C133.297 22.5903 135.274 22.2864 137.261 22.3089M137.604 27.5917C136.184 27.4883 134.769 27.8554 133.578 28.6362C133.094 29.0815 132.721 29.6335 132.488 30.2483C132.255 30.8631 132.169 31.5238 132.236 32.1778C132.164 32.8208 132.246 33.4717 132.474 34.0772C132.702 34.6826 133.07 35.2255 133.549 35.6613C134.647 36.383 135.949 36.7292 137.26 36.6479H138.231C138.959 36.7207 139.694 36.6338 140.385 36.3931C141.076 36.1524 141.705 35.7638 142.23 35.2545C143.03 34.3255 143.43 32.7595 143.43 30.5564C143.362 29.7384 142.978 28.9789 142.36 28.4381C141.743 27.8973 140.939 27.6175 140.119 27.6577C138.838 27.5997 138.329 27.5997 137.607 27.5997" fill="#E76943"/>
<path d="M2.28414 53.9109V50.9931L2.34214 51.4029L0.0151367 48.0593H1.43714L3.21514 50.6513L2.65614 50.6263L4.25614 48.0593H5.63114L3.40314 51.4949L3.52614 50.9261V53.9109H2.28414Z" fill="#E76943"/>
<path d="M9.1181 53.9948C8.71753 53.9987 8.32027 53.9219 7.9501 53.7689C7.60018 53.6224 7.28299 53.4076 7.0171 53.1371C6.74824 52.8626 6.53948 52.5351 6.4041 52.1755C6.25865 51.7894 6.18609 51.3796 6.1901 50.967C6.1853 50.5547 6.25789 50.1451 6.4041 49.7595C6.54097 49.4036 6.74851 49.079 7.0142 48.8053C7.27989 48.5317 7.59825 48.3146 7.9501 48.1672C8.70103 47.8661 9.53918 47.8661 10.2901 48.1672C10.6418 48.3159 10.9598 48.5343 11.2248 48.8091C11.4899 49.084 11.6964 49.4097 11.8321 49.7665C12.1176 50.5438 12.1176 51.3972 11.8321 52.1745C11.6964 52.5314 11.4899 52.8571 11.2248 53.1319C10.9598 53.4068 10.6418 53.6252 10.2901 53.7739C9.91875 53.9277 9.52004 54.0045 9.1181 53.9998M9.1181 52.8123C9.34828 52.8142 9.57638 52.7686 9.7881 52.6783C9.99113 52.5909 10.1722 52.4594 10.3181 52.2935C10.4694 52.1214 10.588 51.9233 10.6681 51.7087C10.8379 51.2329 10.8379 50.7131 10.6681 50.2373C10.5886 50.0236 10.4699 49.8267 10.3181 49.6566C10.1706 49.4926 9.98992 49.3618 9.7881 49.2727C9.57712 49.1797 9.34871 49.1326 9.1181 49.1348C8.88876 49.1323 8.66158 49.1794 8.4521 49.2727C8.24689 49.3653 8.06268 49.4986 7.9107 49.6646C7.75872 49.8306 7.64215 50.0258 7.5681 50.2383C7.40918 50.7159 7.40918 51.2321 7.5681 51.7097C7.64407 51.9263 7.76313 52.1252 7.9181 52.2945C8.06746 52.4588 8.24974 52.59 8.4531 52.6793C8.66331 52.7699 8.89018 52.8156 9.1191 52.8133" fill="#E76943"/>
<path d="M16.0248 53.9619C15.5908 53.9688 15.1621 53.8656 14.7788 53.662C14.4232 53.4725 14.1261 53.1894 13.9198 52.8433C13.709 52.485 13.601 52.0755 13.6078 51.6598V48.0483H14.8498V51.5849C14.8462 51.8054 14.9 52.0231 15.0059 52.2166C15.1064 52.3998 15.2524 52.554 15.4298 52.6644C15.6096 52.7767 15.8179 52.8346 16.0298 52.8313C16.2458 52.834 16.4581 52.7762 16.6429 52.6644C16.8243 52.5552 16.9745 52.4009 17.0788 52.2166C17.1871 52.0239 17.2424 51.8059 17.2388 51.5849V48.0493H18.4388V51.6608C18.4454 52.0766 18.3371 52.4861 18.1258 52.8443C17.9196 53.1904 17.6225 53.4736 17.2668 53.663C16.8862 53.866 16.4602 53.9692 16.0288 53.9629" fill="#E76943"/>
<path d="M20.3737 53.9108V48.0592H22.9227C23.2621 48.0551 23.5966 48.1402 23.8927 48.3061C24.1761 48.4636 24.4131 48.6929 24.5797 48.9709C24.7495 49.2592 24.8364 49.5889 24.8307 49.9235C24.8348 50.2594 24.748 50.5903 24.5797 50.8811C24.4155 51.1654 24.1783 51.4007 23.8927 51.5628C23.5974 51.7308 23.2625 51.8171 22.9227 51.8127H21.5657V53.9118L20.3737 53.9108ZM21.5657 50.7931H22.8657C23.0029 50.7975 23.1385 50.7628 23.2567 50.6931C23.3698 50.6228 23.4598 50.521 23.5157 50.4003C23.5773 50.2683 23.6081 50.124 23.6057 49.9784C23.6095 49.8265 23.5726 49.6764 23.4987 49.5436C23.425 49.4193 23.3166 49.3192 23.1867 49.2558C23.0379 49.1852 22.8744 49.1509 22.7097 49.1558H21.5667L21.5657 50.7931ZM23.6377 53.9108L22.1737 51.2689L23.4397 51.06L25.0677 53.9188L23.6377 53.9108Z" fill="#E76943"/>
<path d="M29.6402 53.9109V48.0593H30.7672L32.8672 51.5289L32.1272 51.5199L34.2492 48.0593H35.3262V53.9109H34.1142V51.9047C34.1142 51.4036 34.1265 50.9525 34.1512 50.5513C34.1759 50.1501 34.2185 49.7503 34.2792 49.3518L34.4272 49.7446L32.7412 52.4025H32.1982L30.5452 49.7606L30.6852 49.3508C30.7452 49.724 30.7879 50.1072 30.8132 50.5003C30.8385 50.8935 30.8509 51.36 30.8502 51.8997V53.9059L29.6402 53.9109Z" fill="#E76943"/>
<path d="M37.3119 53.9109V48.0593H41.2019V49.1589H38.5129V52.8033H41.2549V53.9029L37.3119 53.9109ZM37.8879 50.3914H40.8069V51.4609H37.8879V50.3914Z" fill="#E76943"/>
<path d="M43.0259 53.9109V48.0593H44.1259L47.308 52.4315H47.0779C47.0559 52.2589 47.0366 52.0903 47.02 51.9257C47.0033 51.7611 46.9883 51.5945 46.9749 51.4259C46.9609 51.256 46.95 51.0804 46.942 50.8991C46.934 50.7182 46.9269 50.5253 46.9219 50.3224C46.9169 50.1195 46.9139 49.8976 46.9139 49.6577V48.0583H48.123V53.9099H47.0049L43.757 49.4957L44.0689 49.5037C44.0963 49.7936 44.1196 50.0405 44.1389 50.2444C44.1583 50.4483 44.1733 50.6253 44.1839 50.7752C44.1953 50.9251 44.205 51.0561 44.213 51.168C44.221 51.28 44.2269 51.3849 44.2299 51.4849C44.2329 51.5849 44.2299 51.6908 44.2299 51.8028V53.9099L43.0259 53.9109Z" fill="#E76943"/>
<path d="M51.3138 53.9109V49.1879H49.6358V48.0593H54.2738V49.1879H52.5468V53.9109H51.3138Z" fill="#E76943"/>
<path d="M54.693 53.9109L56.946 48.0593H58.046L60.291 53.9109H59.024L57.864 50.7592C57.831 50.6703 57.791 50.5593 57.745 50.4163C57.699 50.2734 57.65 50.1295 57.601 49.9735C57.552 49.8176 57.501 49.6687 57.461 49.5267C57.421 49.3848 57.384 49.2668 57.361 49.1719L57.583 49.1639C57.5503 49.2918 57.5133 49.4251 57.472 49.5637C57.4307 49.7023 57.388 49.8416 57.344 49.9815C57.3 50.1241 57.2533 50.2621 57.204 50.3954C57.1546 50.5286 57.108 50.6596 57.064 50.7882L55.904 53.9149L54.693 53.9109ZM55.737 52.6814L56.137 51.6698H58.777L59.188 52.6814H55.737Z" fill="#E76943"/>
<path d="M61.5918 53.9109V48.0593H62.8248V52.7824H65.4318V53.9109H61.5918Z" fill="#E76943"/>
<path d="M70.0854 48.0593H71.3214V53.9109H70.0874L70.0854 48.0593ZM70.5794 51.5579L70.5874 50.4213H74.3454V51.5579H70.5794ZM73.7124 48.0593H74.9464V53.9109H73.7124V48.0593Z" fill="#E76943"/>
<path d="M76.9313 53.9109V48.0593H80.8213V49.1589H78.1313V52.8033H80.8783V53.9029L76.9313 53.9109ZM77.5073 50.3914H80.4313V51.4609H77.5123L77.5073 50.3914Z" fill="#E76943"/>
<path d="M81.9664 53.9109L84.2195 48.0593H85.3195L87.5645 53.9109H86.2955L85.1354 50.7592C85.1028 50.6699 85.0631 50.5556 85.0165 50.4163C84.9695 50.2774 84.9224 50.1295 84.8724 49.9735C84.8224 49.8176 84.7725 49.6687 84.7325 49.5267C84.6925 49.3848 84.6554 49.2668 84.6324 49.1719L84.8544 49.1639C84.8211 49.2918 84.7841 49.4251 84.7435 49.5637C84.7028 49.7023 84.6605 49.8416 84.6165 49.9815C84.5725 50.1241 84.5258 50.2621 84.4764 50.3954C84.4271 50.5286 84.3805 50.6596 84.3365 50.7882L83.1765 53.9149L81.9664 53.9109ZM83.0104 52.6814L83.4105 51.6698H86.0505L86.4615 52.6814H83.0104Z" fill="#E76943"/>
<path d="M88.8653 53.9109V48.0593H90.0993V52.7824H92.7063V53.9109H88.8653Z" fill="#E76943"/>
<path d="M94.8505 53.9109V49.1879H93.1725V48.0593H97.8105V49.1879H96.0836V53.9109H94.8505Z" fill="#E76943"/>
<path d="M99.3245 48.0593H100.559V53.9109H99.3245V48.0593ZM99.8185 51.5579L99.8265 50.4213H103.585V51.5579H99.8185ZM102.952 48.0593H104.185V53.9109H102.952V48.0593Z" fill="#E76943"/>
<path d="M109.191 53.9108V48.0592H111.634C111.959 48.0554 112.279 48.1408 112.559 48.3061C112.834 48.4686 113.061 48.7006 113.217 48.9788C113.381 49.2725 113.464 49.6042 113.459 49.9404C113.464 50.2817 113.381 50.6186 113.217 50.918C113.061 51.2011 112.834 51.4389 112.559 51.6077C112.281 51.7779 111.96 51.8662 111.634 51.8626H110.425V53.9108H109.191ZM110.408 50.7341H111.494C111.619 50.7371 111.743 50.7023 111.848 50.6341C111.953 50.5626 112.04 50.4661 112.099 50.3533C112.163 50.2299 112.195 50.0925 112.193 49.9534C112.196 49.8143 112.164 49.6766 112.099 49.5536C112.04 49.4443 111.953 49.3523 111.848 49.2867C111.742 49.2206 111.619 49.186 111.494 49.1868H110.408V50.7341Z" fill="#E76943"/>
<path d="M113.836 53.9109L116.089 48.0593H117.189L119.434 53.9109H118.168L117.009 50.7592C116.976 50.6699 116.937 50.5556 116.89 50.4163C116.843 50.2774 116.795 50.1295 116.746 49.9735C116.697 49.8176 116.646 49.6687 116.606 49.5267C116.566 49.3848 116.529 49.2668 116.506 49.1719L116.728 49.1639C116.695 49.2918 116.658 49.4251 116.617 49.5637C116.576 49.7023 116.533 49.8416 116.49 49.9815C116.446 50.1241 116.399 50.2621 116.35 50.3954C116.301 50.5286 116.254 50.6596 116.21 50.7882L115.05 53.9149L113.836 53.9109ZM114.88 52.6814L115.28 51.6698H117.92L118.331 52.6814H114.88Z" fill="#E76943"/>
<path d="M120.735 53.9108V48.0592H123.285C123.624 48.0551 123.959 48.1403 124.255 48.3061C124.538 48.4637 124.775 48.6929 124.942 48.9709C125.112 49.2593 125.199 49.5889 125.193 49.9235C125.197 50.2594 125.11 50.5902 124.942 50.8811C124.778 51.1653 124.541 51.4006 124.255 51.5628C123.96 51.7307 123.625 51.817 123.285 51.8127H121.928V53.9118L120.735 53.9108ZM121.928 50.7931H123.228C123.365 50.7974 123.501 50.7628 123.619 50.6931C123.732 50.6228 123.822 50.521 123.878 50.4003C123.939 50.2683 123.97 50.124 123.968 49.9784C123.972 49.8265 123.935 49.6764 123.861 49.5436C123.787 49.4191 123.678 49.3191 123.548 49.2557C123.399 49.1851 123.236 49.1509 123.071 49.1558H121.928V50.7931ZM124 53.9108L122.536 51.2689L123.802 51.06L125.43 53.9188L124 53.9108Z" fill="#E76943"/>
<path d="M128.021 53.9109V49.1879H126.343V48.0593H130.981V49.1879H129.254V53.9109H128.021Z" fill="#E76943"/>
<path d="M132.493 53.9109V48.0593H133.593L136.775 52.4315H136.545C136.523 52.2596 136.504 52.0907 136.487 51.9257C136.47 51.7608 136.455 51.5949 136.442 51.4259C136.429 51.257 136.417 51.0801 136.409 50.8991C136.401 50.7182 136.394 50.5253 136.389 50.3224C136.384 50.1195 136.381 49.8976 136.381 49.6577V48.0583H137.59V53.9099H136.474L133.226 49.4957L133.538 49.5037C133.565 49.7936 133.589 50.0405 133.608 50.2444C133.627 50.4483 133.642 50.6253 133.653 50.7752C133.664 50.9251 133.674 51.0561 133.682 51.168C133.69 51.28 133.696 51.3849 133.698 51.4849C133.7 51.5849 133.698 51.6908 133.698 51.8028V53.9099L132.493 53.9109Z" fill="#E76943"/>
<path d="M139.585 53.9109V48.0593H143.475V49.1589H140.785V52.8033H143.532V53.9029L139.585 53.9109ZM140.161 50.3914H143.081V51.4609H140.161V50.3914Z" fill="#E76943"/>
<path d="M145.295 53.9108V48.0592H147.844C148.183 48.055 148.518 48.1402 148.814 48.3061C149.097 48.4635 149.334 48.6928 149.501 48.9709C149.671 49.2592 149.757 49.5889 149.752 49.9235C149.756 50.2594 149.669 50.5903 149.501 50.8811C149.337 51.1655 149.099 51.4008 148.814 51.5628C148.518 51.7308 148.184 51.8171 147.844 51.8127H146.487V53.9118L145.295 53.9108ZM146.487 50.7931H147.787C147.924 50.7973 148.059 50.7626 148.177 50.6931C148.29 50.6228 148.38 50.521 148.436 50.4003C148.498 50.2684 148.529 50.1241 148.527 49.9784C148.531 49.8265 148.494 49.6764 148.42 49.5436C148.346 49.4193 148.238 49.3192 148.108 49.2558C147.959 49.1852 147.795 49.1509 147.631 49.1558H146.488L146.487 50.7931ZM148.559 53.9108L147.095 51.2689L148.362 51.06L149.99 53.9188L148.559 53.9108Z" fill="#E76943"/>
</svg>
