<svg width="17" height="16" viewBox="0 0 17 16" fill="none" xmlns="http://www.w3.org/2000/svg">
<g clip-path="url(#clip0_1_3348)">
<path d="M15.8333 2.00011C15.1949 2.45043 14.4881 2.79485 13.74 3.02011C13.3385 2.55845 12.8049 2.23124 12.2113 2.08273C11.6178 1.93422 10.993 1.97158 10.4214 2.18975C9.84977 2.40792 9.35895 2.79638 9.01531 3.30259C8.67167 3.8088 8.49179 4.40834 8.49999 5.02011V5.68678C7.32841 5.71716 6.16751 5.45732 5.12066 4.93041C4.07382 4.4035 3.17353 3.62587 2.49999 2.66678C2.49999 2.66678 -0.166677 8.66678 5.83332 11.3334C4.46034 12.2654 2.82476 12.7327 1.16666 12.6668C7.16666 16.0001 14.5 12.6668 14.5 5.00011C14.4994 4.81441 14.4815 4.62918 14.4467 4.44678C15.1271 3.77577 15.6072 2.92859 15.8333 2.00011V2.00011Z" stroke="#E76943" stroke-linecap="round" stroke-linejoin="round"/>
</g>
<defs>
<clipPath id="clip0_1_3348">
<rect width="16" height="16" fill="white" transform="translate(0.5)"/>
</clipPath>
</defs>
</svg>
